# xmcd
#
# Track frame offsets:
#	150
#	17676
#	37136
#	52606
#	71791
#	87666
#	108056
#	132320
#	146035
#	165250
#	188600
#	214701
#	235732
#
# Disc length: 3317 seconds
#
# Revision: 1
# Processed by: cddbd v1.5.2PL0 Copyright (c) Steve Scherf et al.
# Submitted via: audiograbber 1.83.01
#
DISCID=ab0cf30d
DTITLE=Grey Wolf - The Blues in me
DYEAR=2004
DGENRE=Blues
TTITLE0=How long Blues
TTITLE1=Red House
TTITLE2=I just wanna make love to you
TTITLE3=St. James Infirmary Blues
TTITLE4=Reno Factory
TTITLE5=Wayfairing Stranger
TTITLE6=It hurts me to
TTITLE7=Rock n Roll
TTITLE8=In the Pines
TTITLE9=Love in vain
TTITLE10=Telephone Blues
TTITLE11=Little red Rooster
TTITLE12=If it's news to you Baby
EXTD=
EXTT0=
EXTT1=
EXTT2=
EXTT3=
EXTT4=
EXTT5=
EXTT6=
EXTT7=
EXTT8=
EXTT9=
EXTT10=
EXTT11=
EXTT12=
PLAYORDER=
